<svg xmlns="http://www.w3.org/2000/svg" width="42.406" height="33.906" viewBox="0 0 42.406 33.906">
  <defs>
    <style>
      .cls-1 {
        fill: #fff;
        fill-rule: evenodd;
      }
    </style>
  </defs>
  <path id="Фигура_1" data-name="Фигура 1" class="cls-1" d="M25,38.3c-0.481-.12-19-19-19-19s-3.124-1.237-2,2,20,20,20,20a1.528,1.528,0,0,0,2,0c0.967-.877,20-20,20-20s1.125-3.022-2-2C41.837,20.319,25.6,38.237,25,38.3ZM25,27C24.519,26.88,6,8,6,8S2.876,6.763,4,10,24,30,24,30a1.528,1.528,0,0,0,2,0c0.967-.878,20-20,20-20s1.125-3.022-2-2C41.837,9.022,25.6,26.94,25,27Z" transform="translate(-3.781 -7.781)"/>
</svg>
